<svg width="1536" height="1536" viewBox="0 0 1536 1536" fill="none" xmlns="http://www.w3.org/2000/svg">
<path d="M0 24C0 10.7452 10.7452 0 24 0H1512C1525.25 0 1536 10.7452 1536 24V1512C1536 1525.25 1525.25 1536 1512 1536H24C10.7452 1536 0 1525.25 0 1512V24Z" fill="#EFEFEF"/>
<path d="M114.5 92.5H1419.5C1432.75 92.5 1443.5 103.245 1443.5 116.5V1366.92C1443.5 1386.43 1421.46 1397.79 1405.57 1386.46L100.569 456.178C94.2508 451.674 90.5 444.394 90.5 436.635V116.5C90.5 103.245 101.245 92.5 114.5 92.5Z" fill="#E8E8E8"/>
<path d="M293 350.863C381.366 350.863 453 323.552 453 289.862C453 256.172 381.366 228.86 293 228.86C204.634 228.86 133 256.172 133 289.862C133 323.552 204.634 350.863 293 350.863Z" stroke="#61DAFB" stroke-width="18"/>
<path d="M240.092 320.363C284.275 396.777 343.779 445.068 372.999 428.223C402.218 411.378 390.088 335.776 345.905 259.361C301.722 182.946 242.218 134.656 212.999 151.501C183.779 168.346 195.91 243.948 240.092 320.363Z" stroke="#61DAFB" stroke-width="18"/>
<path d="M240.092 259.364C195.91 335.779 183.779 411.381 212.999 428.226C242.218 445.071 301.722 396.78 345.905 320.365C390.088 243.951 402.218 168.348 372.999 151.503C343.779 134.658 284.275 182.949 240.092 259.364Z" stroke="#61DAFB" stroke-width="18"/>
<path d="M293.003 319.635C309.471 319.635 322.821 306.304 322.821 289.86C322.821 273.416 309.471 260.086 293.003 260.086C276.535 260.086 263.184 273.416 263.184 289.86C263.184 306.304 276.535 319.635 293.003 319.635Z" fill="#61DAFB"/>
<path d="M543.694 301.433H520.286V348H499.285V227.141H541.785C555.73 227.141 566.494 230.267 574.075 236.521C581.657 242.774 585.447 251.822 585.447 263.664C585.447 271.743 583.483 278.522 579.554 284.001C575.68 289.424 570.257 293.602 563.284 296.535L590.428 346.921V348H567.933L543.694 301.433ZM520.286 284.582H541.868C548.951 284.582 554.485 282.811 558.47 279.27C562.454 275.673 564.446 270.775 564.446 264.577C564.446 258.103 562.592 253.094 558.885 249.553C555.232 246.011 549.754 244.185 542.449 244.074H520.286V284.582ZM639.572 349.66C626.788 349.66 616.412 345.648 608.444 337.624C600.53 329.545 596.574 318.809 596.574 305.417V302.927C596.574 293.962 598.289 285.965 601.72 278.938C605.206 271.854 610.076 266.348 616.329 262.419C622.583 258.49 629.555 256.525 637.247 256.525C649.477 256.525 658.912 260.427 665.553 268.229C672.249 276.032 675.597 287.072 675.597 301.35V309.484H616.911C617.519 316.9 619.982 322.766 624.298 327.082C628.67 331.398 634.149 333.557 640.734 333.557C649.975 333.557 657.501 329.821 663.312 322.351L674.186 332.727C670.589 338.094 665.774 342.272 659.743 345.261C653.766 348.194 647.042 349.66 639.572 349.66ZM637.164 272.712C631.631 272.712 627.148 274.649 623.717 278.522C620.342 282.396 618.183 287.792 617.243 294.709H655.675V293.215C655.232 286.464 653.434 281.372 650.28 277.941C647.125 274.455 642.754 272.712 637.164 272.712ZM741.592 348C740.706 346.285 739.931 343.49 739.267 339.616C732.848 346.312 724.99 349.66 715.693 349.66C706.673 349.66 699.313 347.087 693.613 341.94C687.913 336.794 685.063 330.43 685.063 322.849C685.063 313.275 688.605 305.943 695.688 300.852C702.827 295.705 713.009 293.132 726.235 293.132H738.603V287.238C738.603 282.59 737.303 278.882 734.702 276.115C732.101 273.293 728.144 271.882 722.832 271.882C718.239 271.882 714.476 273.044 711.543 275.368C708.61 277.637 707.143 280.542 707.143 284.084H686.972C686.972 279.159 688.605 274.566 691.87 270.305C695.135 265.988 699.562 262.613 705.151 260.178C710.796 257.743 717.077 256.525 723.994 256.525C734.508 256.525 742.892 259.182 749.145 264.494C755.399 269.751 758.608 277.167 758.774 286.74V327.248C758.774 335.327 759.909 341.774 762.178 346.589V348H741.592ZM719.429 333.474C723.413 333.474 727.148 332.505 730.635 330.568C734.176 328.632 736.832 326.031 738.603 322.766V305.832H727.729C720.259 305.832 714.642 307.132 710.879 309.733C707.116 312.334 705.234 316.014 705.234 320.773C705.234 324.647 706.507 327.746 709.053 330.07C711.653 332.339 715.112 333.474 719.429 333.474ZM813.397 333.557C818.432 333.557 822.611 332.09 825.931 329.157C829.251 326.224 831.022 322.6 831.243 318.283H850.252C850.031 323.872 848.288 329.102 845.023 333.972C841.758 338.786 837.331 342.604 831.741 345.427C826.152 348.249 820.12 349.66 813.646 349.66C801.084 349.66 791.123 345.593 783.763 337.458C776.403 329.323 772.723 318.09 772.723 303.757V301.682C772.723 288.013 776.375 277.084 783.68 268.894C790.985 260.648 800.945 256.525 813.563 256.525C824.243 256.525 832.931 259.652 839.627 265.905C846.378 272.103 849.92 280.266 850.252 290.393H831.243C831.022 285.246 829.251 281.013 825.931 277.692C822.666 274.372 818.488 272.712 813.397 272.712C806.867 272.712 801.831 275.091 798.289 279.851C794.748 284.554 792.949 291.721 792.894 301.35V304.587C792.894 314.326 794.637 321.604 798.123 326.418C801.665 331.177 806.756 333.557 813.397 333.557ZM887.36 236.354V258.186H903.214V273.127H887.36V323.264C887.36 326.695 888.024 329.185 889.352 330.734C890.736 332.229 893.171 332.976 896.657 332.976C898.981 332.976 901.333 332.699 903.712 332.146V347.751C899.119 349.024 894.692 349.66 890.431 349.66C874.936 349.66 867.189 341.11 867.189 324.011V273.127H852.414V258.186H867.189V236.354H887.36ZM1052.05 348H1031.05L977.181 262.253V348H956.18V227.141H977.181L1031.22 313.22V227.141H1052.05V348ZM1125.19 348C1124.3 346.285 1123.53 343.49 1122.86 339.616C1116.44 346.312 1108.59 349.66 1099.29 349.66C1090.27 349.66 1082.91 347.087 1077.21 341.94C1071.51 336.794 1068.66 330.43 1068.66 322.849C1068.66 313.275 1072.2 305.943 1079.28 300.852C1086.42 295.705 1096.6 293.132 1109.83 293.132H1122.2V287.238C1122.2 282.59 1120.9 278.882 1118.3 276.115C1115.7 273.293 1111.74 271.882 1106.43 271.882C1101.83 271.882 1098.07 273.044 1095.14 275.368C1092.21 277.637 1090.74 280.542 1090.74 284.084H1070.57C1070.57 279.159 1072.2 274.566 1075.47 270.305C1078.73 265.988 1083.16 262.613 1088.75 260.178C1094.39 257.743 1100.67 256.525 1107.59 256.525C1118.1 256.525 1126.49 259.182 1132.74 264.494C1138.99 269.751 1142.2 277.167 1142.37 286.74V327.248C1142.37 335.327 1143.5 341.774 1145.77 346.589V348H1125.19ZM1103.02 333.474C1107.01 333.474 1110.74 332.505 1114.23 330.568C1117.77 328.632 1120.43 326.031 1122.2 322.766V305.832H1111.33C1103.85 305.832 1098.24 307.132 1094.47 309.733C1090.71 312.334 1088.83 316.014 1088.83 320.773C1088.83 324.647 1090.1 327.746 1092.65 330.07C1095.25 332.339 1098.71 333.474 1103.02 333.474ZM1185.37 236.354V258.186H1201.23V273.127H1185.37V323.264C1185.37 326.695 1186.04 329.185 1187.36 330.734C1188.75 332.229 1191.18 332.976 1194.67 332.976C1196.99 332.976 1199.34 332.699 1201.72 332.146V347.751C1197.13 349.024 1192.7 349.66 1188.44 349.66C1172.95 349.66 1165.2 341.11 1165.2 324.011V273.127H1150.42V258.186H1165.2V236.354H1185.37ZM1234.76 348H1214.59V258.186H1234.76V348ZM1213.35 234.86C1213.35 231.761 1214.32 229.188 1216.25 227.141C1218.25 225.093 1221.07 224.069 1224.72 224.069C1228.37 224.069 1231.19 225.093 1233.19 227.141C1235.18 229.188 1236.18 231.761 1236.18 234.86C1236.18 237.904 1235.18 240.45 1233.19 242.497C1231.19 244.489 1228.37 245.485 1224.72 245.485C1221.07 245.485 1218.25 244.489 1216.25 242.497C1214.32 240.45 1213.35 237.904 1213.35 234.86ZM1285.07 322.434L1304.08 258.186H1324.91L1293.79 348H1276.27L1244.89 258.186H1265.81L1285.07 322.434ZM1372.56 349.66C1359.78 349.66 1349.4 345.648 1341.44 337.624C1333.52 329.545 1329.57 318.809 1329.57 305.417V302.927C1329.57 293.962 1331.28 285.965 1334.71 278.938C1338.2 271.854 1343.07 266.348 1349.32 262.419C1355.57 258.49 1362.55 256.525 1370.24 256.525C1382.47 256.525 1391.9 260.427 1398.55 268.229C1405.24 276.032 1408.59 287.072 1408.59 301.35V309.484H1349.9C1350.51 316.9 1352.97 322.766 1357.29 327.082C1361.66 331.398 1367.14 333.557 1373.73 333.557C1382.97 333.557 1390.49 329.821 1396.3 322.351L1407.18 332.727C1403.58 338.094 1398.77 342.272 1392.73 345.261C1386.76 348.194 1380.03 349.66 1372.56 349.66ZM1370.16 272.712C1364.62 272.712 1360.14 274.649 1356.71 278.522C1353.33 282.396 1351.18 287.792 1350.23 294.709H1388.67V293.215C1388.22 286.464 1386.43 281.372 1383.27 277.941C1380.12 274.455 1375.75 272.712 1370.16 272.712Z" fill="#61DAFB"/>
<path d="M1140.84 1290.78C1136.43 1300.94 1131.2 1310.3 1125.14 1318.91C1116.89 1330.64 1110.13 1338.75 1104.92 1343.26C1096.84 1350.66 1088.19 1354.45 1078.92 1354.67C1072.27 1354.67 1064.25 1352.78 1054.91 1348.96C1045.54 1345.15 1036.93 1343.26 1029.06 1343.26C1020.8 1343.26 1011.95 1345.15 1002.47 1348.96C992.988 1352.78 985.346 1354.78 979.504 1354.98C970.618 1355.35 961.761 1351.45 952.921 1343.26C947.278 1338.36 940.221 1329.95 931.766 1318.04C922.695 1305.33 915.237 1290.58 909.394 1273.77C903.137 1255.61 900 1238.02 900 1221C900 1201.5 904.229 1184.68 912.7 1170.58C919.358 1159.26 928.214 1150.33 939.299 1143.77C950.384 1137.21 962.362 1133.87 975.26 1133.66C982.318 1133.66 991.573 1135.84 1003.07 1140.11C1014.54 1144.4 1021.91 1146.58 1025.14 1146.58C1027.55 1146.58 1035.73 1144.03 1049.6 1138.96C1062.71 1134.26 1073.78 1132.31 1082.85 1133.08C1107.42 1135.05 1125.88 1144.71 1138.16 1162.09C1116.18 1175.36 1105.31 1193.94 1105.53 1217.78C1105.73 1236.35 1112.49 1251.8 1125.77 1264.07C1131.79 1269.76 1138.52 1274.16 1146 1277.29C1144.38 1281.98 1142.66 1286.47 1140.84 1290.78ZM1084.49 1069.82C1084.49 1084.37 1079.15 1097.96 1068.52 1110.54C1055.68 1125.49 1040.16 1134.13 1023.32 1132.77C1023.11 1131.02 1022.98 1129.19 1022.98 1127.25C1022.98 1113.28 1029.09 1098.33 1039.93 1086.11C1045.34 1079.92 1052.22 1074.77 1060.57 1070.66C1068.9 1066.62 1076.78 1064.38 1084.18 1064C1084.4 1065.95 1084.49 1067.89 1084.49 1069.82Z" fill="black"/>
<g clip-path="url(#clip0)">
<path d="M552.104 937.641C573.99 937.641 591.733 919.898 591.733 898.012C591.733 876.126 573.99 858.384 552.104 858.384C530.218 858.384 512.476 876.126 512.476 898.012C512.476 919.898 530.218 937.641 552.104 937.641Z" fill="#F2F2F2"/>
<path d="M558.548 931.841C580.434 931.841 598.176 914.099 598.176 892.213C598.176 870.327 580.434 852.585 558.548 852.585C536.662 852.585 518.92 870.327 518.92 892.213C518.92 914.099 536.662 931.841 558.548 931.841Z" fill="#61DAFB"/>
<path d="M1080.77 848.365H590.463V849.703H1080.77V848.365Z" fill="#3F3D56"/>
<path d="M844.394 561.477H670.365V557.89H591.453V561.477H416.706C415.16 561.477 413.63 561.781 412.201 562.373C410.773 562.964 409.475 563.831 408.382 564.924C407.289 566.018 406.422 567.315 405.831 568.744C405.239 570.172 404.935 571.702 404.935 573.248V811.548C404.935 814.67 406.175 817.664 408.382 819.872C410.59 822.08 413.584 823.32 416.706 823.32H844.394C847.516 823.32 850.51 822.08 852.718 819.872C854.926 817.664 856.166 814.67 856.166 811.548V573.248C856.166 571.702 855.861 570.172 855.27 568.744C854.678 567.315 853.811 566.018 852.718 564.924C851.625 563.831 850.327 562.964 848.899 562.373C847.471 561.781 845.94 561.477 844.394 561.477Z" fill="#3F3D56"/>
<path d="M840.384 582.281H420.717V819.016H840.384V582.281Z" fill="#61DAFB"/>
<path d="M630.192 575.824C632.569 575.824 634.496 573.897 634.496 571.52C634.496 569.143 632.569 567.216 630.192 567.216C627.814 567.216 625.887 569.143 625.887 571.52C625.887 573.897 627.814 575.824 630.192 575.824Z" fill="#61DAFB"/>
<path opacity="0.1" d="M720.366 819.016H420.717V582.281L720.366 819.016Z" fill="black"/>
<path d="M486.382 801.301C508.661 801.301 526.722 783.24 526.722 760.961C526.722 738.682 508.661 720.621 486.382 720.621C464.103 720.621 446.042 738.682 446.042 760.961C446.042 783.24 464.103 801.301 486.382 801.301Z" fill="#F2F2F2"/>
<path d="M767.313 709.954H728.111V718.145H767.313V709.954Z" fill="#3F3D56"/>
<path d="M814.705 646.178H680.718V649.689H814.705V646.178Z" fill="#3F3D56"/>
<path d="M814.705 657.295H680.718V660.806H814.705V657.295Z" fill="#3F3D56"/>
<path d="M814.705 668.412H680.718V671.922H814.705V668.412Z" fill="#3F3D56"/>
<path d="M814.705 679.529H680.718V683.039H814.705V679.529Z" fill="#3F3D56"/>
<path d="M814.705 690.646H680.718V694.156H814.705V690.646Z" fill="#3F3D56"/>
<path d="M814.705 587.083H798.323V603.466H814.705V587.083Z" fill="#F2F2F2"/>
<path d="M822.312 611.072H802.418V591.179H822.312V611.072ZM803.283 610.208H821.447V592.044H803.283V610.208Z" fill="#3F3D56"/>
<path d="M867.949 814.711H826.992V811.761C826.992 811.684 826.977 811.608 826.948 811.537C826.919 811.466 826.875 811.401 826.821 811.347C826.767 811.292 826.702 811.249 826.631 811.22C826.56 811.191 826.484 811.175 826.407 811.175H812.365C812.288 811.175 812.212 811.191 812.141 811.22C812.07 811.249 812.006 811.292 811.951 811.347C811.897 811.401 811.854 811.466 811.825 811.537C811.795 811.608 811.78 811.684 811.78 811.761V814.711H803.004V811.761C803.004 811.684 802.988 811.608 802.959 811.537C802.93 811.466 802.887 811.401 802.832 811.347C802.778 811.292 802.713 811.249 802.642 811.22C802.571 811.191 802.495 811.175 802.418 811.175H788.376C788.299 811.175 788.223 811.191 788.152 811.22C788.081 811.249 788.017 811.292 787.962 811.347C787.908 811.401 787.865 811.466 787.836 811.537C787.806 811.608 787.791 811.684 787.791 811.761V814.711H779.015V811.761C779.015 811.684 778.999 811.608 778.97 811.537C778.941 811.466 778.898 811.401 778.843 811.347C778.789 811.292 778.724 811.249 778.653 811.22C778.582 811.191 778.506 811.175 778.43 811.175H764.387C764.31 811.175 764.234 811.191 764.163 811.22C764.092 811.249 764.028 811.292 763.973 811.347C763.919 811.401 763.876 811.466 763.847 811.537C763.817 811.608 763.802 811.684 763.802 811.761V814.711H755.026V811.761C755.026 811.684 755.011 811.608 754.981 811.537C754.952 811.466 754.909 811.401 754.854 811.347C754.8 811.292 754.735 811.249 754.664 811.22C754.593 811.191 754.517 811.175 754.441 811.175H740.398C740.321 811.175 740.245 811.191 740.174 811.22C740.103 811.249 740.039 811.292 739.984 811.347C739.93 811.401 739.887 811.466 739.858 811.537C739.828 811.608 739.813 811.684 739.813 811.761V814.711H731.037V811.761C731.037 811.684 731.022 811.608 730.992 811.537C730.963 811.466 730.92 811.401 730.865 811.347C730.811 811.292 730.747 811.249 730.676 811.22C730.605 811.191 730.528 811.175 730.452 811.175H716.409C716.332 811.175 716.256 811.191 716.185 811.22C716.114 811.249 716.05 811.292 715.996 811.347C715.941 811.401 715.898 811.466 715.869 811.537C715.839 811.608 715.824 811.684 715.824 811.761V814.711H707.048V811.761C707.048 811.684 707.033 811.608 707.003 811.537C706.974 811.466 706.931 811.401 706.876 811.347C706.822 811.292 706.758 811.249 706.687 811.22C706.616 811.191 706.539 811.175 706.463 811.175H692.42C692.344 811.175 692.267 811.191 692.196 811.22C692.125 811.249 692.061 811.292 692.007 811.347C691.952 811.401 691.909 811.466 691.88 811.537C691.85 811.608 691.835 811.684 691.835 811.761V814.711H683.059V811.761C683.059 811.684 683.044 811.608 683.014 811.537C682.985 811.466 682.942 811.401 682.887 811.347C682.833 811.292 682.769 811.249 682.698 811.22C682.627 811.191 682.551 811.175 682.474 811.175H572.476C572.399 811.175 572.323 811.191 572.252 811.22C572.181 811.249 572.116 811.292 572.062 811.347C572.008 811.401 571.964 811.466 571.935 811.537C571.906 811.608 571.89 811.684 571.89 811.761V814.711H563.114V811.761C563.114 811.684 563.099 811.608 563.069 811.537C563.04 811.466 562.997 811.401 562.943 811.347C562.888 811.292 562.824 811.249 562.753 811.22C562.682 811.191 562.606 811.175 562.529 811.175H548.487C548.41 811.175 548.334 811.191 548.263 811.22C548.192 811.249 548.127 811.292 548.073 811.347C548.019 811.401 547.975 811.466 547.946 811.537C547.917 811.608 547.902 811.684 547.902 811.761V814.711H539.125V811.761C539.125 811.684 539.11 811.608 539.081 811.537C539.051 811.466 539.008 811.401 538.954 811.347C538.899 811.292 538.835 811.249 538.764 811.22C538.693 811.191 538.617 811.175 538.54 811.175H524.498C524.421 811.175 524.345 811.191 524.274 811.22C524.203 811.249 524.138 811.292 524.084 811.347C524.03 811.401 523.986 811.466 523.957 811.537C523.928 811.608 523.913 811.684 523.913 811.761V814.711H515.136V811.761C515.136 811.684 515.121 811.608 515.092 811.537C515.062 811.466 515.019 811.401 514.965 811.347C514.91 811.292 514.846 811.249 514.775 811.22C514.704 811.191 514.628 811.175 514.551 811.175H500.509C500.432 811.175 500.356 811.191 500.285 811.22C500.214 811.249 500.149 811.292 500.095 811.347C500.041 811.401 499.998 811.466 499.968 811.537C499.939 811.608 499.924 811.684 499.924 811.761V814.711H491.147V811.761C491.147 811.684 491.132 811.608 491.103 811.537C491.073 811.466 491.03 811.401 490.976 811.347C490.921 811.292 490.857 811.249 490.786 811.22C490.715 811.191 490.639 811.175 490.562 811.175H476.52C476.443 811.175 476.367 811.191 476.296 811.22C476.225 811.249 476.16 811.292 476.106 811.347C476.052 811.401 476.009 811.466 475.979 811.537C475.95 811.608 475.935 811.684 475.935 811.761V814.711H467.158V811.761C467.158 811.684 467.143 811.608 467.114 811.537C467.084 811.466 467.041 811.401 466.987 811.347C466.933 811.292 466.868 811.249 466.797 811.22C466.726 811.191 466.65 811.175 466.573 811.175H452.531C452.454 811.175 452.378 811.191 452.307 811.22C452.236 811.249 452.171 811.292 452.117 811.347C452.063 811.401 452.02 811.466 451.99 811.537C451.961 811.608 451.946 811.684 451.946 811.761V814.711H443.169V811.761C443.169 811.684 443.154 811.608 443.125 811.537C443.095 811.466 443.052 811.401 442.998 811.347C442.944 811.292 442.879 811.249 442.808 811.22C442.737 811.191 442.661 811.175 442.584 811.175H428.542C428.465 811.175 428.389 811.191 428.318 811.22C428.247 811.249 428.182 811.292 428.128 811.347C428.074 811.401 428.031 811.466 428.001 811.537C427.972 811.608 427.957 811.684 427.957 811.761V814.711H401.042C397.318 814.711 393.746 816.191 391.113 818.824C388.479 821.458 387 825.029 387 828.754V835.103C387 838.828 388.479 842.399 391.113 845.033C393.746 847.666 397.318 849.146 401.042 849.146H867.949C871.673 849.146 875.245 847.666 877.879 845.033C880.512 842.399 881.992 838.828 881.992 835.103V828.754C881.992 825.029 880.512 821.458 877.879 818.824C875.245 816.191 871.673 814.711 867.949 814.711Z" fill="#3F3D56"/>
<path d="M496.147 786.157C486.092 786.157 476.263 783.175 467.903 777.589C459.543 772.003 453.027 764.063 449.179 754.774C445.332 745.485 444.325 735.263 446.286 725.402C448.248 715.54 453.09 706.482 460.199 699.372C467.309 692.263 476.367 687.421 486.229 685.46C496.09 683.498 506.312 684.505 515.601 688.352C524.89 692.2 532.83 698.716 538.416 707.076C544.002 715.436 546.984 725.265 546.984 735.32C546.968 748.798 541.607 761.72 532.077 771.25C522.546 780.78 509.625 786.141 496.147 786.157ZM496.147 685.82C486.357 685.82 476.786 688.724 468.646 694.163C460.506 699.602 454.162 707.332 450.415 716.377C446.669 725.422 445.689 735.375 447.599 744.976C449.508 754.578 454.223 763.398 461.145 770.321C468.068 777.243 476.888 781.958 486.49 783.868C496.092 785.778 506.044 784.797 515.089 781.051C524.134 777.304 531.865 770.96 537.304 762.82C542.743 754.68 545.646 745.11 545.646 735.32C545.631 722.196 540.411 709.615 531.131 700.335C521.852 691.055 509.27 685.835 496.147 685.82Z" fill="#3F3D56"/>
<path d="M949.666 570.768H779.094V572.106H949.666V570.768Z" fill="#3F3D56"/>
<path d="M1149 923.952H658.691V925.289H1149V923.952Z" fill="#3F3D56"/>
<path d="M720.785 916.899H702.055V935.629H720.785V916.899Z" fill="#61DAFB"/>
<path d="M732.156 924.926H709.413V902.183H732.156V924.926ZM710.402 923.937H731.167V903.172H710.402V923.937Z" fill="#3F3D56"/>
<path d="M938.18 563.716H919.45V582.445H938.18V563.716Z" fill="#61DAFB"/>
<path d="M949.551 571.743H926.808V549H949.551V571.743ZM927.797 570.754H948.562V549.989H927.797V570.754Z" fill="#3F3D56"/>
<path d="M1126.81 916.899H1108.08V935.629H1126.81V916.899Z" fill="#61DAFB"/>
<path d="M1138.18 924.926H1115.44V902.183H1138.18V924.926ZM1116.43 923.937H1137.19V903.172H1116.43V923.937Z" fill="#3F3D56"/>
<path d="M1094.15 704.159H1092.56V660.572C1092.56 657.259 1091.91 653.978 1090.64 650.918C1089.37 647.857 1087.51 645.076 1085.17 642.733C1082.83 640.391 1080.05 638.533 1076.99 637.265C1073.93 635.997 1070.64 635.345 1067.33 635.345H974.987C971.674 635.345 968.393 635.997 965.333 637.265C962.272 638.533 959.491 640.391 957.148 642.733C954.806 645.076 952.948 647.857 951.68 650.918C950.412 653.978 949.76 657.259 949.76 660.572V899.694C949.76 903.006 950.412 906.287 951.68 909.348C952.948 912.408 954.806 915.189 957.148 917.532C959.491 919.874 962.272 921.733 965.333 923C968.393 924.268 971.674 924.921 974.987 924.921H1067.33C1070.64 924.921 1073.93 924.268 1076.99 923C1080.05 921.733 1082.83 919.874 1085.17 917.532C1087.51 915.189 1089.37 912.408 1090.64 909.348C1091.91 906.287 1092.56 903.006 1092.56 899.694V735.185H1094.15V704.159Z" fill="#3F3D56"/>
<path d="M1087.19 662.054V900.827C1087.19 905.824 1085.2 910.616 1081.67 914.15C1078.14 917.684 1073.35 919.67 1068.35 919.671H975.559C970.563 919.67 965.771 917.684 962.239 914.15C958.706 910.616 956.722 905.824 956.723 900.827V662.054C956.723 657.059 958.708 652.268 962.241 648.735C965.773 645.203 970.564 643.218 975.559 643.218H986.817C986.263 644.577 986.052 646.051 986.202 647.511C986.352 648.971 986.858 650.371 987.677 651.589C988.496 652.807 989.602 653.805 990.897 654.495C992.192 655.185 993.637 655.546 995.105 655.546H1048.01C1049.48 655.546 1050.92 655.185 1052.22 654.495C1053.51 653.805 1054.62 652.807 1055.44 651.589C1056.26 650.371 1056.76 648.971 1056.91 647.511C1057.06 646.051 1056.85 644.577 1056.3 643.218H1068.35C1073.35 643.218 1078.14 645.203 1081.67 648.735C1085.2 652.268 1087.19 657.059 1087.19 662.054Z" fill="#61DAFB"/>
<path d="M1035.78 800.655H1008.13V808.846H1035.78V800.655Z" fill="#3F3D56"/>
<path d="M1069.19 736.879H974.716V740.39H1069.19V736.879Z" fill="#3F3D56"/>
<path d="M1069.19 747.996H974.716V751.507H1069.19V747.996Z" fill="#3F3D56"/>
<path d="M1069.19 759.113H974.716V762.624H1069.19V759.113Z" fill="#3F3D56"/>
<path d="M1069.19 770.23H974.716V773.74H1069.19V770.23Z" fill="#3F3D56"/>
<path d="M1069.19 781.347H974.716V784.857H1069.19V781.347Z" fill="#3F3D56"/>
<path d="M1025.25 690.259H1008.87V706.642H1025.25V690.259Z" fill="#F2F2F2"/>
<path d="M1015.14 694.356V714.249H1035.04V694.356H1015.14ZM1034.17 713.386H1016.01V695.219H1034.17V713.386Z" fill="#3F3D56"/>
<path opacity="0.1" d="M1087.19 875.329V900.827C1087.19 905.824 1085.2 910.616 1081.67 914.15C1078.14 917.684 1073.35 919.67 1068.35 919.671H975.559C970.563 919.67 965.771 917.684 962.239 914.15C958.706 910.616 956.722 905.824 956.723 900.827V772.257L1034.9 834.017L1036.24 835.074L1050.78 846.559L1052.14 847.636L1087.19 875.329Z" fill="black"/>
<path d="M1013.93 911.932C1030.13 911.932 1043.27 898.795 1043.27 882.589C1043.27 866.383 1030.13 853.245 1013.93 853.245C997.722 853.245 984.584 866.383 984.584 882.589C984.584 898.795 997.722 911.932 1013.93 911.932Z" fill="#F2F2F2"/>
<path d="M601.165 986.829C589.655 986.829 578.404 983.416 568.834 977.021C559.264 970.627 551.805 961.538 547.4 950.904C542.995 940.27 541.843 928.569 544.088 917.281C546.334 905.992 551.876 895.623 560.015 887.484C568.154 879.345 578.523 873.803 589.812 871.557C601.1 869.312 612.802 870.464 623.435 874.869C634.069 879.274 643.158 886.733 649.552 896.303C655.947 905.873 659.36 917.124 659.36 928.634C659.343 944.063 653.206 958.855 642.296 969.765C631.386 980.675 616.594 986.811 601.165 986.829ZM601.165 871.777C589.92 871.777 578.927 875.111 569.577 881.359C560.227 887.607 552.939 896.486 548.636 906.876C544.332 917.265 543.207 928.697 545.4 939.726C547.594 950.755 553.009 960.886 560.961 968.838C568.913 976.79 579.044 982.205 590.073 984.399C601.102 986.592 612.534 985.467 622.923 981.163C633.313 976.86 642.192 969.572 648.44 960.222C654.688 950.872 658.022 939.879 658.022 928.634C658.005 913.56 652.009 899.108 641.35 888.449C630.691 877.79 616.239 871.794 601.165 871.777Z" fill="#3F3D56"/>
<path d="M1022.58 905.222C1015.3 905.222 1008.19 903.064 1002.14 899.022C996.087 894.979 991.372 889.234 988.587 882.511C985.803 875.789 985.074 868.391 986.494 861.255C987.913 854.118 991.417 847.563 996.562 842.418C1001.71 837.273 1008.26 833.769 1015.4 832.349C1022.54 830.93 1029.93 831.658 1036.66 834.443C1043.38 837.227 1049.12 841.943 1053.17 847.993C1057.21 854.043 1059.37 861.156 1059.37 868.432C1059.36 878.186 1055.48 887.537 1048.58 894.434C1041.68 901.332 1032.33 905.211 1022.58 905.222ZM1022.58 832.98C1015.56 832.98 1008.71 835.059 1002.88 838.955C997.051 842.85 992.507 848.387 989.823 854.865C987.14 861.343 986.438 868.472 987.806 875.349C989.174 882.226 992.55 888.543 997.508 893.501C1002.47 898.459 1008.78 901.835 1015.66 903.203C1022.54 904.571 1029.67 903.869 1036.14 901.186C1042.62 898.502 1048.16 893.958 1052.05 888.128C1055.95 882.298 1058.03 875.444 1058.03 868.432C1058.02 859.033 1054.28 850.022 1047.63 843.375C1040.99 836.729 1031.98 832.991 1022.58 832.98Z" fill="#3F3D56"/>
</g>
<path d="M615.752 1220.47C613.058 1220.47 610.425 1219.67 608.186 1218.18C605.946 1216.68 604.2 1214.56 603.169 1212.08C602.138 1209.59 601.868 1206.86 602.393 1204.22C602.918 1201.58 604.214 1199.16 606.118 1197.26C608.022 1195.35 610.449 1194.06 613.09 1193.53C615.731 1193.01 618.47 1193.28 620.958 1194.3C623.446 1195.33 625.574 1197.08 627.07 1199.31C628.567 1201.55 629.366 1204.18 629.367 1206.87C629.363 1210.47 627.927 1213.93 625.375 1216.48C622.823 1219.03 619.362 1220.46 615.752 1220.47ZM465.248 1220.47C462.555 1220.47 459.922 1219.67 457.682 1218.18C455.443 1216.68 453.697 1214.56 452.666 1212.08C451.635 1209.59 451.364 1206.86 451.889 1204.22C452.414 1201.58 453.711 1199.16 455.615 1197.26C457.519 1195.35 459.945 1194.06 462.587 1193.53C465.228 1193.01 467.966 1193.28 470.455 1194.3C472.943 1195.33 475.07 1197.08 476.567 1199.31C478.064 1201.55 478.863 1204.18 478.863 1206.87C478.86 1210.47 477.424 1213.93 474.872 1216.48C472.32 1219.03 468.859 1220.46 465.248 1220.47ZM620.635 1138.56L647.847 1091.49C648.219 1090.85 648.461 1090.14 648.558 1089.4C648.656 1088.66 648.607 1087.92 648.415 1087.2C648.223 1086.48 647.891 1085.81 647.439 1085.22C646.986 1084.63 646.422 1084.13 645.779 1083.76C645.135 1083.39 644.424 1083.15 643.687 1083.05C642.95 1082.95 642.2 1083 641.482 1083.19C640.764 1083.39 640.09 1083.72 639.5 1084.17C638.91 1084.62 638.414 1085.18 638.042 1085.83L610.486 1133.49C589.415 1123.89 565.749 1118.54 540.497 1118.54C515.246 1118.54 491.583 1123.89 470.511 1133.49L442.958 1085.83C442.586 1085.18 442.091 1084.62 441.501 1084.17C440.912 1083.72 440.238 1083.39 439.52 1083.19C438.802 1083 438.053 1082.95 437.316 1083.05C436.579 1083.15 435.868 1083.39 435.224 1083.76C434.58 1084.13 434.016 1084.62 433.563 1085.21C433.11 1085.8 432.778 1086.47 432.586 1087.19C432.393 1087.91 432.344 1088.66 432.441 1089.39C432.538 1090.13 432.779 1090.84 433.151 1091.48L460.365 1138.56C413.637 1163.94 381.675 1211.18 377 1267H704C699.32 1211.18 667.361 1163.94 620.635 1138.56Z" fill="#3DDC84"/>
<defs>
<clipPath id="clip0">
<rect width="762" height="437.829" fill="white" transform="translate(387 549)"/>
</clipPath>
</defs>
</svg>
