<svg width="1033" height="556" viewBox="0 0 1033 556" fill="none" xmlns="http://www.w3.org/2000/svg">
<path d="M12.74 224C11.3533 224 10.66 223.393 10.66 222.18L10.4 45.12C10.4 43.7333 11.0933 43.04 12.48 43.04H35.88L79.82 145.48L78.52 45.12C78.52 43.7333 79.3 43.04 80.86 43.04H106.6C107.64 43.04 108.16 43.7333 108.16 45.12L108.42 222.44C108.42 223.48 107.987 224 107.12 224H84.24L39.26 128.32L41.08 221.92C41.08 223.307 40.3 224 38.74 224H12.74ZM117.745 224C117.052 224 116.705 223.567 116.705 222.7L116.965 44.08C116.965 43.3867 117.312 43.04 118.005 43.04H201.465C202.159 43.04 202.505 43.4733 202.505 44.34V73.46C202.505 74.1533 202.159 74.5 201.465 74.5H148.165V115.06H201.465C202.159 115.06 202.505 115.407 202.505 116.1L202.765 145.48C202.765 146.173 202.419 146.52 201.725 146.52H148.165V192.02H201.725C202.419 192.02 202.765 192.453 202.765 193.32V222.96C202.765 223.653 202.419 224 201.725 224H117.745ZM255.363 226.6C245.829 226.6 237.163 224.26 229.363 219.58C221.736 214.727 215.669 208.313 211.163 200.34C206.656 192.367 204.403 183.44 204.403 173.56L204.663 92.44C204.663 82.9067 206.829 74.24 211.163 66.44C215.669 58.4667 221.736 52.14 229.363 47.46C237.163 42.6067 245.829 40.18 255.363 40.18C264.896 40.18 273.476 42.52 281.103 47.2C288.729 51.88 294.796 58.2067 299.303 66.18C303.809 73.98 306.063 82.7333 306.063 92.44V104.4C306.063 105.093 305.716 105.44 305.023 105.44H275.903C275.209 105.44 274.863 105.093 274.863 104.4V92.44C274.863 86.72 272.956 81.78 269.143 77.62C265.503 73.46 260.909 71.38 255.363 71.38C249.123 71.38 244.356 73.5467 241.063 77.88C237.769 82.04 236.123 86.8933 236.123 92.44V173.56C236.123 179.973 237.943 185.173 241.583 189.16C245.396 193.147 249.989 195.14 255.363 195.14C260.909 195.14 265.503 192.973 269.143 188.64C272.956 184.133 274.863 179.107 274.863 173.56V161.6C274.863 160.907 275.209 160.56 275.903 160.56H305.283C305.976 160.56 306.323 160.907 306.323 161.6V173.56C306.323 183.44 303.983 192.367 299.303 200.34C294.796 208.313 288.729 214.727 281.103 219.58C273.476 224.26 264.896 226.6 255.363 226.6ZM333.734 224C333.041 224 332.694 223.567 332.694 222.7V74.5H298.894C298.028 74.5 297.594 74.0667 297.594 73.2L297.854 44.08C297.854 43.3867 298.201 43.04 298.894 43.04H397.694C398.561 43.04 398.994 43.3867 398.994 44.08V73.2C398.994 74.0667 398.648 74.5 397.954 74.5H363.894L364.154 222.7C364.154 223.567 363.808 224 363.114 224H333.734ZM54.6 504.6C45.24 504.6 36.66 502.26 28.86 497.58C21.2333 492.727 15.08 486.4 10.4 478.6C5.89333 470.627 3.64 461.873 3.64 452.34V440.38C3.64 439.513 4.07333 439.08 4.94 439.08H34.06C34.7533 439.08 35.1 439.513 35.1 440.38V452.34C35.1 458.06 37.0067 463 40.82 467.16C44.6333 471.147 49.2267 473.14 54.6 473.14C59.9733 473.14 64.5667 471.06 68.38 466.9C72.1933 462.74 74.1 457.887 74.1 452.34C74.1 445.927 69.94 440.38 61.62 435.7C58.8467 434.14 54.5133 431.713 48.62 428.42C42.7267 425.127 37.18 422.007 31.98 419.06C22.4467 413.513 15.34 406.58 10.66 398.26C6.15333 389.767 3.9 380.233 3.9 369.66C3.9 359.953 6.24 351.287 10.92 343.66C15.6 335.86 21.7533 329.707 29.38 325.2C37.18 320.693 45.5867 318.44 54.6 318.44C63.7867 318.44 72.1933 320.78 79.82 325.46C87.62 329.967 93.7733 336.12 98.28 343.92C102.96 351.547 105.3 360.127 105.3 369.66V390.98C105.3 391.673 104.953 392.02 104.26 392.02H75.14C74.4467 392.02 74.1 391.673 74.1 390.98L73.84 369.66C73.84 363.593 71.9333 358.653 68.12 354.84C64.3067 351.027 59.8 349.12 54.6 349.12C49.2267 349.12 44.6333 351.2 40.82 355.36C37.0067 359.347 35.1 364.113 35.1 369.66C35.1 375.38 36.3133 380.147 38.74 383.96C41.1667 387.773 45.5867 391.413 52 394.88C52.8667 395.4 54.5133 396.353 56.94 397.74C59.54 398.953 62.3133 400.427 65.26 402.16C68.2067 403.72 70.8067 405.107 73.06 406.32C75.4867 407.533 76.96 408.313 77.48 408.66C86.1467 413.513 92.9933 419.493 98.02 426.6C103.047 433.533 105.56 442.113 105.56 452.34C105.56 462.22 103.22 471.147 98.54 479.12C94.0333 486.92 87.88 493.16 80.08 497.84C72.4533 502.347 63.96 504.6 54.6 504.6ZM110.382 502C109.689 502 109.342 501.567 109.342 500.7L109.602 322.08C109.602 321.387 109.949 321.04 110.642 321.04H194.102C194.796 321.04 195.142 321.473 195.142 322.34V351.46C195.142 352.153 194.796 352.5 194.102 352.5H140.802V393.06H194.102C194.796 393.06 195.142 393.407 195.142 394.1L195.402 423.48C195.402 424.173 195.056 424.52 194.362 424.52H140.802V470.02H194.362C195.056 470.02 195.402 470.453 195.402 471.32V500.96C195.402 501.653 195.056 502 194.362 502H110.382ZM205.262 502C204.569 502 204.222 501.567 204.222 500.7L204.482 322.34C204.482 321.473 204.915 321.04 205.782 321.04H234.642C235.509 321.04 235.942 321.473 235.942 322.34L235.682 470.02H289.242C290.109 470.02 290.542 470.453 290.542 471.32V500.7C290.542 501.567 290.109 502 289.242 502H205.262ZM294.562 502C293.695 502 293.262 501.567 293.262 500.7L293.782 322.08C293.782 321.387 294.128 321.04 294.822 321.04H378.022C378.888 321.04 379.322 321.387 379.322 322.08V351.46C379.322 352.153 378.975 352.5 378.282 352.5H324.982V392.8H378.282C378.975 392.8 379.322 393.233 379.322 394.1L379.582 423.48C379.582 424.173 379.148 424.52 378.282 424.52H324.982V500.7C324.982 501.567 324.548 502 323.682 502H294.562ZM406.622 502C405.755 502 405.322 501.567 405.322 500.7L405.582 322.08C405.582 321.387 405.928 321.04 406.622 321.04H435.742C436.435 321.04 436.782 321.387 436.782 322.08L437.042 500.7C437.042 501.567 436.695 502 436.002 502H406.622ZM446.564 502C445.871 502 445.524 501.567 445.524 500.7L445.784 322.08C445.784 321.387 446.131 321.04 446.824 321.04H530.284C530.978 321.04 531.324 321.473 531.324 322.34V351.46C531.324 352.153 530.978 352.5 530.284 352.5H476.984V393.06H530.284C530.978 393.06 531.324 393.407 531.324 394.1L531.584 423.48C531.584 424.173 531.238 424.52 530.544 424.52H476.984V470.02H530.544C531.238 470.02 531.584 470.453 531.584 471.32V500.96C531.584 501.653 531.238 502 530.544 502H446.564ZM590.291 502C589.425 502 588.991 501.567 588.991 500.7L589.251 322.08C589.251 321.387 589.598 321.04 590.291 321.04H619.411C620.105 321.04 620.451 321.387 620.451 322.08L620.711 500.7C620.711 501.567 620.365 502 619.671 502H590.291ZM630.581 502C629.715 502 629.281 501.567 629.281 500.7L629.801 322.08C629.801 321.387 630.148 321.04 630.841 321.04L679.461 320.78C688.995 320.607 697.661 322.86 705.461 327.54C713.435 332.22 719.761 338.547 724.441 346.52C729.121 354.32 731.461 362.987 731.461 372.52V447.14C731.461 457.193 729.035 466.38 724.181 474.7C719.328 482.847 712.828 489.347 704.681 494.2C696.535 499.053 687.348 501.567 677.121 501.74L630.581 502ZM661.001 470.02H677.121C683.535 470.02 688.908 467.767 693.241 463.26C697.748 458.753 700.001 453.38 700.001 447.14V372.26C700.001 366.713 697.921 361.947 693.761 357.96C689.775 353.8 685.008 351.807 679.461 351.98L661.261 352.24L661.001 470.02ZM738.658 502C737.965 502 737.618 501.567 737.618 500.7L737.878 322.08C737.878 321.387 738.225 321.04 738.918 321.04H822.378C823.071 321.04 823.418 321.473 823.418 322.34V351.46C823.418 352.153 823.071 352.5 822.378 352.5H769.078V393.06H822.378C823.071 393.06 823.418 393.407 823.418 394.1L823.678 423.48C823.678 424.173 823.331 424.52 822.638 424.52H769.078V470.02H822.638C823.331 470.02 823.678 470.453 823.678 471.32V500.96C823.678 501.653 823.331 502 822.638 502H738.658ZM834.838 502C833.451 502 832.758 501.393 832.758 500.18L832.498 323.12C832.498 321.733 833.191 321.04 834.578 321.04H857.978L901.918 423.48L900.618 323.12C900.618 321.733 901.398 321.04 902.958 321.04H928.698C929.738 321.04 930.258 321.733 930.258 323.12L930.518 500.44C930.518 501.48 930.084 502 929.218 502H906.338L861.358 406.32L863.178 499.92C863.178 501.307 862.398 502 860.838 502H834.838ZM964.803 502C964.11 502 963.763 501.567 963.763 500.7V352.5H929.963C929.096 352.5 928.663 352.067 928.663 351.2L928.923 322.08C928.923 321.387 929.27 321.04 929.963 321.04H1028.76C1029.63 321.04 1030.06 321.387 1030.06 322.08V351.2C1030.06 352.067 1029.72 352.5 1029.02 352.5H994.963L995.223 500.7C995.223 501.567 994.876 502 994.183 502H964.803Z" fill="white"/>
<path d="M576.104 72.3945H574.565C574.071 72.3945 573.67 72.816 573.67 73.336V100.315C573.67 100.835 574.071 101.257 574.565 101.257H576.104C576.599 101.257 577 100.835 577 100.315V73.336C577 72.816 576.599 72.3945 576.104 72.3945Z" fill="#3F3D56"/>
<path d="M457.522 49.0825H456.698C456.312 49.0825 456 49.3732 456 49.7319V58.424C456 58.7826 456.312 59.0733 456.698 59.0733H457.522C457.908 59.0733 458.22 58.7826 458.22 58.424V49.7319C458.22 49.3732 457.908 49.0825 457.522 49.0825Z" fill="#3F3D56"/>
<path d="M457.522 66.8442H456.698C456.312 66.8442 456 67.158 456 67.5451V82.7947C456 83.1818 456.312 83.4956 456.698 83.4956H457.522C457.908 83.4956 458.22 83.1818 458.22 82.7947V67.5451C458.22 67.158 457.908 66.8442 457.522 66.8442Z" fill="#3F3D56"/>
<path d="M457.522 89.0459H456.698C456.312 89.0459 456 89.3617 456 89.7513V106.102C456 106.492 456.312 106.807 456.698 106.807H457.522C457.908 106.807 458.22 106.492 458.22 106.102V89.7513C458.22 89.3617 457.908 89.0459 457.522 89.0459Z" fill="#3F3D56"/>
<path d="M561.023 18H471.977C463.766 18 457.11 24.6421 457.11 32.8355V244.054C457.11 252.248 463.766 258.89 471.977 258.89H561.023C569.234 258.89 575.89 252.248 575.89 244.054V32.8355C575.89 24.6421 569.234 18 561.023 18Z" fill="#3F3D56"/>
<path d="M520.433 24.6606H505.907C505.32 24.6606 504.844 25.1293 504.844 25.7075V26.9441C504.844 27.5222 505.32 27.9909 505.907 27.9909H520.433C521.02 27.9909 521.495 27.5222 521.495 26.9441V25.7075C521.495 25.1293 521.02 24.6606 520.433 24.6606Z" fill="#E6E8EC"/>
<path d="M525.381 27.9909C526.3 27.9909 527.046 27.2454 527.046 26.3258C527.046 25.4062 526.3 24.6606 525.381 24.6606C524.461 24.6606 523.716 25.4062 523.716 26.3258C523.716 27.2454 524.461 27.9909 525.381 27.9909Z" fill="#E6E8EC"/>
<path d="M568.119 32.9784V242.805C568.119 245.305 567.122 247.702 565.349 249.469C563.576 251.237 561.171 252.23 558.663 252.229H473.226C470.719 252.23 468.314 251.237 466.541 249.469C464.768 247.702 463.771 245.305 463.771 242.805V32.9784C463.771 31.7403 464.015 30.5142 464.49 29.3703C464.965 28.2264 465.662 27.187 466.54 26.3115C467.418 25.436 468.46 24.7415 469.608 24.2677C470.755 23.794 471.985 23.5502 473.226 23.5503H486.011V25.1876C486.012 27.2464 486.832 29.2206 488.292 30.6764C489.753 32.1322 491.733 32.9503 493.797 32.9509H537.247C539.312 32.9509 541.293 32.133 542.753 30.6771C544.213 29.2212 545.033 27.2465 545.033 25.1876V23.5503H558.663C559.905 23.5502 561.135 23.794 562.282 24.2677C563.429 24.7415 564.472 25.436 565.35 26.3115C566.228 27.187 566.925 28.2264 567.4 29.3703C567.875 30.5142 568.119 31.7403 568.119 32.9784Z" fill="white"/>
</svg>
